<svg id="egKvReiYJk11" xmlns="http://www.w3.org/2000/svg" xmlns:xlink="http://www.w3.org/1999/xlink" viewBox="0 0 640 480" shape-rendering="geometricPrecision" text-rendering="geometricPrecision"><g transform="matrix(1.528187 0 0 1.528187-169.019851-98.291915)"><polygon points="4.639923,-105.558241 37.119382,-36.27651 37.119382,94.973137 -27.839536,95.118414 -27.839536,-36.27651 4.639923,-105.558241" transform="translate(407.153172 245.219914)" fill="#fff" stroke="#000" stroke-width="5" stroke-linecap="round" stroke-linejoin="round"/><polygon points="4.639923,-105.558241 37.119382,-36.27651 37.119382,94.973137 -27.839536,95.118414 -27.839536,-36.27651 4.639923,-105.558241" transform="matrix(1 0 0 1.51313 315.360077 229.266543)" fill="#fff" stroke="#000" stroke-width="5" stroke-linecap="round" stroke-linejoin="round"/><polygon points="4.639923,-105.558241 37.119382,-36.27651 37.119382,94.973137 -27.839536,95.118414 -27.839536,-36.27651 4.639923,-105.558241" transform="translate(223.566982 245.219914)" fill="#fff" stroke="#000" stroke-width="5" stroke-linecap="round" stroke-linejoin="round"/><line x1="-13.417088" y1="0" x2="13.417088" y2="0" transform="translate(274.103452 308.804091)" fill="none" stroke="#000" stroke-width="5"/><line x1="-13.417088" y1="0" x2="13.417088" y2="0" transform="translate(274.103452 265.777059)" fill="none" stroke="#000" stroke-width="5"/><line x1="-13.417088" y1="0" x2="13.417088" y2="0" transform="translate(274.103453 221.368136)" fill="none" stroke="#000" stroke-width="5"/><line x1="-13.417088" y1="0" x2="13.417088" y2="0" transform="translate(274.103452 327.435957)" fill="none" stroke="#000" stroke-width="5"/><line x1="-13.417088" y1="0" x2="13.417088" y2="0" transform="translate(274.103452 284.408924)" fill="none" stroke="#000" stroke-width="5"/><line x1="-13.417088" y1="0" x2="13.417088" y2="0" transform="translate(274.103453 240)" fill="none" stroke="#000" stroke-width="5"/><line x1="-13.417088" y1="0" x2="13.417088" y2="0" transform="translate(365.896547 308.804091)" fill="none" stroke="#000" stroke-width="5"/><line x1="-13.417088" y1="0" x2="13.417088" y2="0" transform="translate(365.896547 265.777059)" fill="none" stroke="#000" stroke-width="5"/><line x1="-13.417088" y1="0" x2="13.417088" y2="0" transform="translate(365.896548 221.368136)" fill="none" stroke="#000" stroke-width="5"/><line x1="-13.417088" y1="0" x2="13.417088" y2="0" transform="translate(365.896547 327.435957)" fill="none" stroke="#000" stroke-width="5"/><line x1="-13.417088" y1="0" x2="13.417088" y2="0" transform="translate(365.896547 284.408924)" fill="none" stroke="#000" stroke-width="5"/><line x1="-13.417088" y1="0" x2="13.417088" y2="0" transform="translate(365.896548 240)" fill="none" stroke="#000" stroke-width="5"/><line x1="0" y1="70.355202" x2="0" y2="-70.355202" transform="translate(228.206905 253.108255)" fill="none" stroke="#000" stroke-width="5" stroke-linecap="round" stroke-linejoin="round"/><line x1="0" y1="67.683486" x2="0" y2="-67.683485" transform="matrix(-1 0 0 1.378201 320 250.436538)" fill="none" stroke="#000" stroke-width="5" stroke-linecap="round" stroke-linejoin="round"/><line x1="0" y1="67.683486" x2="0" y2="-67.683485" transform="translate(411.793095 250.436538)" fill="none" stroke="#000" stroke-width="5" stroke-linecap="round" stroke-linejoin="round"/></g></svg>